<svg width="1756" height="972" viewBox="0 0 1756 972" fill="none" xmlns="http://www.w3.org/2000/svg">
<rect x="1" y="-1" width="88" height="88" rx="9" transform="matrix(1 0 0 -1 0 676)" fill="#EB7577" stroke="black" stroke-width="2"/>
<rect x="1" y="-1" width="88" height="88" rx="9" transform="matrix(1 0 0 -1 0 578)" fill="#EB7577" stroke="black" stroke-width="2"/>
<rect x="1" y="-1" width="88" height="88" rx="9" transform="matrix(1 0 0 -1 0 480)" fill="#EB7577" stroke="black" stroke-width="2"/>
<rect x="1" y="-1" width="88" height="88" rx="9" transform="matrix(1 0 0 -1 0 382)" fill="#EB7577" stroke="black" stroke-width="2"/>
<rect x="1" y="-1" width="88" height="88" rx="9" transform="matrix(1 0 0 -1 0 284)" fill="#EB7577" stroke="black" stroke-width="2"/>
<rect x="1" y="-1" width="88" height="88" rx="9" transform="matrix(1 0 0 -1 0 186)" fill="#EB7577" stroke="black" stroke-width="2"/>
<rect x="1" y="-1" width="88" height="88" rx="9" transform="matrix(1 0 0 -1 0 88)" fill="#97E7B7" stroke="black" stroke-width="2"/>
<rect x="1" y="-1" width="88" height="88" rx="9" transform="matrix(1 0 0 -1 98 578)" fill="#FEC9A6" stroke="black" stroke-width="2"/>
<rect x="1" y="-1" width="88" height="88" rx="9" transform="matrix(1 0 0 -1 98 480)" fill="#FEC9A6" stroke="black" stroke-width="2"/>
<rect x="1" y="-1" width="88" height="88" rx="9" transform="matrix(1 0 0 -1 98 382)" fill="#FEC9A6" stroke="black" stroke-width="2"/>
<rect x="1" y="-1" width="88" height="88" rx="9" transform="matrix(1 0 0 -1 98 284)" fill="#FEC9A6" stroke="black" stroke-width="2"/>
<rect x="1" y="-1" width="88" height="88" rx="9" transform="matrix(1 0 0 -1 98 186)" fill="#FEC9A6" stroke="black" stroke-width="2"/>
<rect x="1" y="-1" width="88" height="88" rx="9" transform="matrix(1 0 0 -1 196 676)" fill="#FF714D" stroke="black" stroke-width="2"/>
<rect x="1" y="-1" width="88" height="88" rx="9" transform="matrix(1 0 0 -1 196 970)" fill="#FF714D" stroke="black" stroke-width="2"/>
<rect x="1" y="-1" width="88" height="88" rx="9" transform="matrix(1 0 0 -1 196 578)" fill="#FF9175" stroke="black" stroke-width="2"/>
<rect x="1" y="-1" width="88" height="88" rx="9" transform="matrix(1 0 0 -1 196 872)" fill="#FF9175" stroke="black" stroke-width="2"/>
<rect x="1" y="-1" width="88" height="88" rx="9" transform="matrix(1 0 0 -1 294 970)" fill="#FF714D" stroke="black" stroke-width="2"/>
<rect x="1" y="-1" width="88" height="88" rx="9" transform="matrix(1 0 0 -1 294 872)" fill="#FF9175" stroke="black" stroke-width="2"/>
<rect x="1" y="-1" width="88" height="88" rx="9" transform="matrix(1 0 0 -1 392 970)" fill="#FF714D" stroke="black" stroke-width="2"/>
<rect x="1" y="-1" width="88" height="88" rx="9" transform="matrix(1 0 0 -1 392 872)" fill="#FF9175" stroke="black" stroke-width="2"/>
<rect x="1" y="-1" width="88" height="88" rx="9" transform="matrix(1 0 0 -1 490 970)" fill="#FF714D" stroke="black" stroke-width="2"/>
<rect x="1" y="-1" width="88" height="88" rx="9" transform="matrix(1 0 0 -1 490 872)" fill="#FF9175" stroke="black" stroke-width="2"/>
<rect x="1" y="-1" width="88" height="88" rx="9" transform="matrix(1 0 0 -1 588 970)" fill="#FF714D" stroke="black" stroke-width="2"/>
<rect x="1" y="-1" width="88" height="88" rx="9" transform="matrix(1 0 0 -1 588 872)" fill="#FF9175" stroke="black" stroke-width="2"/>
<rect x="1" y="-1" width="88" height="88" rx="9" transform="matrix(1 0 0 -1 686 970)" fill="#FF714D" stroke="black" stroke-width="2"/>
<rect x="1" y="-1" width="88" height="88" rx="9" transform="matrix(1 0 0 -1 686 872)" fill="#FF9175" stroke="black" stroke-width="2"/>
<rect x="1" y="-1" width="88" height="88" rx="9" transform="matrix(1 0 0 -1 784 970)" fill="#FF714D" stroke="black" stroke-width="2"/>
<rect x="1" y="-1" width="88" height="88" rx="9" transform="matrix(1 0 0 -1 784 872)" fill="#FF9175" stroke="black" stroke-width="2"/>
<rect x="1" y="-1" width="88" height="88" rx="9" transform="matrix(1 0 0 -1 882 970)" fill="#FF714D" stroke="black" stroke-width="2"/>
<rect x="1" y="-1" width="88" height="88" rx="9" transform="matrix(1 0 0 -1 882 872)" fill="#FF9175" stroke="black" stroke-width="2"/>
<rect x="1" y="-1" width="88" height="88" rx="9" transform="matrix(1 0 0 -1 980 970)" fill="#FF714D" stroke="black" stroke-width="2"/>
<rect x="1" y="-1" width="88" height="88" rx="9" transform="matrix(1 0 0 -1 980 872)" fill="#FF9175" stroke="black" stroke-width="2"/>
<rect x="1" y="-1" width="88" height="88" rx="9" transform="matrix(1 0 0 -1 1078 970)" fill="#FF714D" stroke="black" stroke-width="2"/>
<rect x="1" y="-1" width="88" height="88" rx="9" transform="matrix(1 0 0 -1 1078 872)" fill="#FF9175" stroke="black" stroke-width="2"/>
<rect x="1" y="-1" width="88" height="88" rx="9" transform="matrix(1 0 0 -1 1176 970)" fill="#FF714D" stroke="black" stroke-width="2"/>
<rect x="1" y="-1" width="88" height="88" rx="9" transform="matrix(1 0 0 -1 1176 872)" fill="#FF9175" stroke="black" stroke-width="2"/>
<rect x="1" y="-1" width="88" height="88" rx="9" transform="matrix(1 0 0 -1 1274 970)" fill="#FF714D" stroke="black" stroke-width="2"/>
<rect x="1" y="-1" width="88" height="88" rx="9" transform="matrix(1 0 0 -1 1274 872)" fill="#FF9175" stroke="black" stroke-width="2"/>
<rect x="1" y="-1" width="88" height="88" rx="9" transform="matrix(1 0 0 -1 1372 970)" fill="#FF714D" stroke="black" stroke-width="2"/>
<rect x="1" y="-1" width="88" height="88" rx="9" transform="matrix(1 0 0 -1 1372 872)" fill="#FF9175" stroke="black" stroke-width="2"/>
<rect x="1" y="-1" width="88" height="88" rx="9" transform="matrix(1 0 0 -1 1470 970)" fill="#FF714D" stroke="black" stroke-width="2"/>
<rect x="1" y="-1" width="88" height="88" rx="9" transform="matrix(1 0 0 -1 1470 872)" fill="#FF9175" stroke="black" stroke-width="2"/>
<rect x="1" y="-1" width="88" height="88" rx="9" transform="matrix(1 0 0 -1 1568 970)" fill="#FF714D" stroke="black" stroke-width="2"/>
<rect x="1" y="-1" width="88" height="88" rx="9" transform="matrix(1 0 0 -1 1568 872)" fill="#FF9175" stroke="black" stroke-width="2"/>
<rect x="1" y="-1" width="88" height="88" rx="9" transform="matrix(1 0 0 -1 196 480)" fill="#FDBCAB" stroke="black" stroke-width="2"/>
<rect x="1" y="-1" width="88" height="88" rx="9" transform="matrix(1 0 0 -1 196 382)" fill="#FDBCAB" stroke="black" stroke-width="2"/>
<rect x="1" y="-1" width="88" height="88" rx="9" transform="matrix(1 0 0 -1 294 676)" fill="#FDBCAB" stroke="black" stroke-width="2"/>
<rect x="1" y="-1" width="88" height="88" rx="9" transform="matrix(1 0 0 -1 294 578)" fill="#FDBCAB" stroke="black" stroke-width="2"/>
<rect x="1" y="-1" width="88" height="88" rx="9" transform="matrix(1 0 0 -1 294 480)" fill="#FDBCAB" stroke="black" stroke-width="2"/>
<rect x="1" y="-1" width="88" height="88" rx="9" transform="matrix(1 0 0 -1 294 382)" fill="#FDBCAB" stroke="black" stroke-width="2"/>
<rect x="1" y="-1" width="88" height="88" rx="9" transform="matrix(1 0 0 -1 392 676)" fill="#FDBCAB" stroke="black" stroke-width="2"/>
<rect x="1" y="-1" width="88" height="88" rx="9" transform="matrix(1 0 0 -1 392 578)" fill="#FDBCAB" stroke="black" stroke-width="2"/>
<rect x="1" y="-1" width="88" height="88" rx="9" transform="matrix(1 0 0 -1 392 480)" fill="#FDBCAB" stroke="black" stroke-width="2"/>
<rect x="1" y="-1" width="88" height="88" rx="9" transform="matrix(1 0 0 -1 392 382)" fill="#FDBCAB" stroke="black" stroke-width="2"/>
<rect x="1" y="-1" width="88" height="88" rx="9" transform="matrix(1 0 0 -1 490 676)" fill="#FDBCAB" stroke="black" stroke-width="2"/>
<rect x="1" y="-1" width="88" height="88" rx="9" transform="matrix(1 0 0 -1 490 578)" fill="#FDBCAB" stroke="black" stroke-width="2"/>
<rect x="1" y="-1" width="88" height="88" rx="9" transform="matrix(1 0 0 -1 490 480)" fill="#FDBCAB" stroke="black" stroke-width="2"/>
<rect x="1" y="-1" width="88" height="88" rx="9" transform="matrix(1 0 0 -1 490 382)" fill="#FDBCAB" stroke="black" stroke-width="2"/>
<rect x="1" y="-1" width="88" height="88" rx="9" transform="matrix(1 0 0 -1 588 676)" fill="#FDBCAB" stroke="black" stroke-width="2"/>
<rect x="1" y="-1" width="88" height="88" rx="9" transform="matrix(1 0 0 -1 588 578)" fill="#FDBCAB" stroke="black" stroke-width="2"/>
<rect x="1" y="-1" width="88" height="88" rx="9" transform="matrix(1 0 0 -1 588 480)" fill="#FDBCAB" stroke="black" stroke-width="2"/>
<rect x="1" y="-1" width="88" height="88" rx="9" transform="matrix(1 0 0 -1 588 382)" fill="#FDBCAB" stroke="black" stroke-width="2"/>
<rect x="1" y="-1" width="88" height="88" rx="9" transform="matrix(1 0 0 -1 686 676)" fill="#FDBCAB" stroke="black" stroke-width="2"/>
<rect x="1" y="-1" width="88" height="88" rx="9" transform="matrix(1 0 0 -1 686 578)" fill="#FDBCAB" stroke="black" stroke-width="2"/>
<rect x="1" y="-1" width="88" height="88" rx="9" transform="matrix(1 0 0 -1 686 480)" fill="#FDBCAB" stroke="black" stroke-width="2"/>
<rect x="1" y="-1" width="88" height="88" rx="9" transform="matrix(1 0 0 -1 686 382)" fill="#FDBCAB" stroke="black" stroke-width="2"/>
<rect x="1" y="-1" width="88" height="88" rx="9" transform="matrix(1 0 0 -1 784 676)" fill="#FDBCAB" stroke="black" stroke-width="2"/>
<rect x="1" y="-1" width="88" height="88" rx="9" transform="matrix(1 0 0 -1 784 578)" fill="#FDBCAB" stroke="black" stroke-width="2"/>
<rect x="1" y="-1" width="88" height="88" rx="9" transform="matrix(1 0 0 -1 784 480)" fill="#FDBCAB" stroke="black" stroke-width="2"/>
<rect x="1" y="-1" width="88" height="88" rx="9" transform="matrix(1 0 0 -1 784 382)" fill="#FDBCAB" stroke="black" stroke-width="2"/>
<rect x="1" y="-1" width="88" height="88" rx="9" transform="matrix(1 0 0 -1 882 676)" fill="#FDBCAB" stroke="black" stroke-width="2"/>
<rect x="1" y="-1" width="88" height="88" rx="9" transform="matrix(1 0 0 -1 882 578)" fill="#FDBCAB" stroke="black" stroke-width="2"/>
<rect x="1" y="-1" width="88" height="88" rx="9" transform="matrix(1 0 0 -1 882 480)" fill="#FDBCAB" stroke="black" stroke-width="2"/>
<rect x="1" y="-1" width="88" height="88" rx="9" transform="matrix(1 0 0 -1 882 382)" fill="#FDBCAB" stroke="black" stroke-width="2"/>
<rect x="1" y="-1" width="88" height="88" rx="9" transform="matrix(1 0 0 -1 980 676)" fill="#FDBCAB" stroke="black" stroke-width="2"/>
<rect x="1" y="-1" width="88" height="88" rx="9" transform="matrix(1 0 0 -1 980 578)" fill="#FDBCAB" stroke="black" stroke-width="2"/>
<rect x="1" y="-1" width="88" height="88" rx="9" transform="matrix(1 0 0 -1 980 480)" fill="#FDBCAB" stroke="black" stroke-width="2"/>
<rect x="1" y="-1" width="88" height="88" rx="9" transform="matrix(1 0 0 -1 980 382)" fill="#FDBCAB" stroke="black" stroke-width="2"/>
<rect x="1" y="-1" width="88" height="88" rx="9" transform="matrix(1 0 0 -1 1078 676)" fill="#FDBCAB" stroke="black" stroke-width="2"/>
<rect x="1" y="-1" width="88" height="88" rx="9" transform="matrix(1 0 0 -1 1078 578)" fill="#FDBCAB" stroke="black" stroke-width="2"/>
<rect x="1" y="-1" width="88" height="88" rx="9" transform="matrix(1 0 0 -1 1078 480)" fill="#FDBCAB" stroke="black" stroke-width="2"/>
<rect x="1" y="-1" width="88" height="88" rx="9" transform="matrix(1 0 0 -1 1078 382)" fill="#FDBCAB" stroke="black" stroke-width="2"/>
<rect x="1" y="-1" width="88" height="88" rx="9" transform="matrix(1 0 0 -1 98 676)" fill="#FEC9A6" stroke="black" stroke-width="2"/>
<rect x="1" y="-1" width="88" height="88" rx="9" transform="matrix(1 0 0 -1 1176 676)" fill="#C8C8C8" stroke="black" stroke-width="2"/>
<rect x="1" y="-1" width="88" height="88" rx="9" transform="matrix(1 0 0 -1 1176 578)" fill="#C8C8C8" stroke="black" stroke-width="2"/>
<rect x="1" y="-1" width="88" height="88" rx="9" transform="matrix(1 0 0 -1 1176 480)" fill="#C8C8C8" stroke="black" stroke-width="2"/>
<rect x="1" y="-1" width="88" height="88" rx="9" transform="matrix(1 0 0 -1 1176 382)" fill="#C8C8C8" stroke="black" stroke-width="2"/>
<rect x="1" y="-1" width="88" height="88" rx="9" transform="matrix(1 0 0 -1 1176 284)" fill="#C8C8C8" stroke="black" stroke-width="2"/>
<rect x="1" y="-1" width="88" height="88" rx="9" transform="matrix(1 0 0 -1 1176 186)" fill="#C8D0AE" stroke="black" stroke-width="2"/>
<rect x="1" y="-1" width="88" height="88" rx="9" transform="matrix(1 0 0 -1 1274 578)" fill="#C8C8C8" stroke="black" stroke-width="2"/>
<rect x="1" y="-1" width="88" height="88" rx="9" transform="matrix(1 0 0 -1 1274 480)" fill="#C8C8C8" stroke="black" stroke-width="2"/>
<rect x="1" y="-1" width="88" height="88" rx="9" transform="matrix(1 0 0 -1 1274 382)" fill="#C8D0AE" stroke="black" stroke-width="2"/>
<rect x="1" y="-1" width="88" height="88" rx="9" transform="matrix(1 0 0 -1 1274 284)" fill="#C8D0AE" stroke="black" stroke-width="2"/>
<rect x="1" y="-1" width="88" height="88" rx="9" transform="matrix(1 0 0 -1 1274 186)" fill="#97E7B7" stroke="black" stroke-width="2"/>
<rect x="1" y="-1" width="88" height="88" rx="9" transform="matrix(1 0 0 -1 1274 676)" fill="#C8C8C8" stroke="black" stroke-width="2"/>
<rect x="1" y="-1" width="88" height="88" rx="9" transform="matrix(1 0 0 -1 1372 676)" fill="#C8C8C8" stroke="black" stroke-width="2"/>
<rect x="1" y="-1" width="88" height="88" rx="9" transform="matrix(1 0 0 -1 1372 578)" fill="#C8C8C8" stroke="black" stroke-width="2"/>
<rect x="1" y="-1" width="88" height="88" rx="9" transform="matrix(1 0 0 -1 1372 480)" fill="#C8D0AE" stroke="black" stroke-width="2"/>
<rect x="1" y="-1" width="88" height="88" rx="9" transform="matrix(1 0 0 -1 1372 382)" fill="#C8D0AE" stroke="black" stroke-width="2"/>
<rect x="1" y="-1" width="88" height="88" rx="9" transform="matrix(1 0 0 -1 1372 284)" fill="#97E7B7" stroke="black" stroke-width="2"/>
<rect x="1" y="-1" width="88" height="88" rx="9" transform="matrix(1 0 0 -1 1372 186)" fill="#97E7B7" stroke="black" stroke-width="2"/>
<rect x="1" y="-1" width="88" height="88" rx="9" transform="matrix(1 0 0 -1 1470 578)" fill="#C8D0AE" stroke="black" stroke-width="2"/>
<rect x="1" y="-1" width="88" height="88" rx="9" transform="matrix(1 0 0 -1 1470 480)" fill="#C8D0AE" stroke="black" stroke-width="2"/>
<rect x="1" y="-1" width="88" height="88" rx="9" transform="matrix(1 0 0 -1 1470 382)" fill="#97E7B7" stroke="black" stroke-width="2"/>
<rect x="1" y="-1" width="88" height="88" rx="9" transform="matrix(1 0 0 -1 1470 284)" fill="#97E7B7" stroke="black" stroke-width="2"/>
<rect x="1" y="-1" width="88" height="88" rx="9" transform="matrix(1 0 0 -1 1470 186)" fill="#97E7B7" stroke="black" stroke-width="2"/>
<rect x="1" y="-1" width="88" height="88" rx="9" transform="matrix(1 0 0 -1 1470 676)" fill="#C8C8C8" stroke="black" stroke-width="2"/>
<rect x="1" y="-1" width="88" height="88" rx="9" transform="matrix(1 0 0 -1 1568 676)" fill="#FFEADD" stroke="black" stroke-width="2"/>
<rect x="1" y="-1" width="88" height="88" rx="9" transform="matrix(1 0 0 -1 1568 578)" fill="#FFEADD" stroke="black" stroke-width="2"/>
<rect x="1" y="-1" width="88" height="88" rx="9" transform="matrix(1 0 0 -1 1568 480)" fill="#FFEADD" stroke="black" stroke-width="2"/>
<rect x="1" y="-1" width="88" height="88" rx="9" transform="matrix(1 0 0 -1 1568 382)" fill="#FFEADD" stroke="black" stroke-width="2"/>
<rect x="1" y="-1" width="88" height="88" rx="9" transform="matrix(1 0 0 -1 1568 284)" fill="#FFEADD" stroke="black" stroke-width="2"/>
<rect x="1" y="-1" width="88" height="88" rx="9" transform="matrix(1 0 0 -1 1568 186)" fill="#FFEADD" stroke="black" stroke-width="2"/>
<rect x="1" y="-1" width="88" height="88" rx="9" transform="matrix(1 0 0 -1 1666 480)" fill="#98F2E8" stroke="black" stroke-width="2"/>
<rect x="1" y="-1" width="88" height="88" rx="9" transform="matrix(1 0 0 -1 1666 382)" fill="#98F2E8" stroke="black" stroke-width="2"/>
<rect x="1" y="-1" width="88" height="88" rx="9" transform="matrix(1 0 0 -1 1666 284)" fill="#98F2E8" stroke="black" stroke-width="2"/>
<rect x="1" y="-1" width="88" height="88" rx="9" transform="matrix(1 0 0 -1 1666 186)" fill="#98F2E8" stroke="black" stroke-width="2"/>
<rect x="1" y="-1" width="88" height="88" rx="9" transform="matrix(1 0 0 -1 1666 88)" fill="#98F2E8" stroke="black" stroke-width="2"/>
<rect x="1" y="-1" width="88" height="88" rx="9" transform="matrix(1 0 0 -1 1666 578)" fill="#98F2E8" stroke="black" stroke-width="2"/>
<rect x="1" y="-1" width="88" height="88" rx="9" transform="matrix(1 0 0 -1 1666 676)" fill="#98F2E8" stroke="black" stroke-width="2"/>
</svg>
